<?xml version="1.0" standalone="no"?>
<!DOCTYPE svg PUBLIC "-//W3C//DTD SVG 20010904//EN"
 "http://www.w3.org/TR/2001/REC-SVG-20010904/DTD/svg10.dtd">
<svg version="1.0" xmlns="http://www.w3.org/2000/svg"
 width="700.000000pt" height="700.000000pt" viewBox="0 0 700.000000 700.000000"
 preserveAspectRatio="xMidYMid meet">
<metadata>
Created by potrace 1.14, written by Peter Selinger 2001-2017
</metadata>
<g transform="translate(0.000000,700.000000) scale(0.100000,-0.100000)"
fill="#000000" stroke="none">
<path d="M3200 6990 c-145 -15 -196 -22 -330 -46 -919 -168 -1721 -689 -2262
-1469 -133 -193 -291 -493 -373 -710 -21 -55 -41 -109 -46 -120 -54 -132 -133
-474 -166 -720 -25 -190 -24 -680 2 -836 2 -13 6 -46 9 -74 9 -78 22 -152 51
-285 21 -96 91 -339 114 -395 5 -11 25 -65 46 -120 64 -170 213 -461 314 -615
271 -411 605 -747 1008 -1016 77 -52 145 -94 149 -94 4 0 15 -6 23 -14 47 -41
413 -212 576 -270 79 -27 261 -84 291 -90 10 -2 57 -13 104 -25 109 -26 200
-43 299 -57 25 -3 57 -8 71 -10 162 -25 683 -25 842 1 13 2 46 7 73 10 71 10
87 13 115 18 14 3 43 8 65 12 115 21 314 74 455 122 188 64 473 192 614 278
32 19 62 35 67 35 5 0 9 5 9 10 0 6 5 10 10 10 15 0 220 141 330 227 152 118
324 280 450 422 36 41 70 79 76 85 6 6 48 61 94 121 150 197 277 405 383 628
26 53 47 99 47 102 0 2 11 28 24 57 57 127 151 421 182 573 64 308 79 464 79
795 -1 326 -28 546 -105 845 -240 924 -828 1691 -1668 2175 -296 170 -722 328
-1032 384 -41 7 -104 18 -125 23 -11 2 -54 8 -95 13 -41 5 -93 12 -115 15 -65
9 -573 13 -655 5z"/>
</g>
</svg>
